<svg xmlns="http://www.w3.org/2000/svg" width="193.24818" height="300" viewBox="0 0 193.24818 300"><title>tseries</title><rect width="193.24818" height="300" style="fill:#ef1a26"/><path d="M178.8926,14.069V285.931H14.35558V14.069h164.537m6.07351-6.07352H8.28206v284.009h176.684V7.99551Z" style="fill:#fff"/><path d="M96.90016,55.68957a63.7719,63.7719,0,1,1-63.7719,63.7719,63.77189,63.77189,0,0,1,63.7719-63.7719m0-5.52138a69.29331,69.29331,0,1,0,48.99773,20.29554A68.83954,68.83954,0,0,0,96.90016,50.16819Z" style="fill:#fff"/><polygon points="59.631 77.223 56.318 92.131 80.612 92.131 71.226 168.326 101.593 168.326 111.532 92.131 132.513 92.131 135.826 77.223 59.631 77.223" style="fill:#fff"/><path d="M56.06735,221.77041c1.01746-2.273,2.74555-6.92521-5.52758-10.75917-6.33664-2.9365-10.40064-.9353-11.9913,2.49733-2.0533,4.43044,1.269,7.18132,2.55936,8.24287l4.56741,3.75587c1.23152,1.03381,1.32928,1.89936.86733,2.89627-1.115,2.40579-3.75537,1.18209-4.25359.95117-3.492-1.618-2.42231-4.0803-2.05737-4.94477l-5.89626-2.73235a7.62585,7.62585,0,0,0-.56187,5.44138c.93008,3.06847,4.3166,5.06542,6.51717,6.08514,5.30981,2.46079,10.33768,2.225,12.52665-2.49847,2.08-4.48828-.857-6.91881-3.33358-8.957,0,0-5.34024-4.47126-4.61987-6.0262.58475-1.26138,2.119-1.72654,3.82037-.9381a2.8201,2.8201,0,0,1,1.42776,4.22592Z" style="fill:#fff"/><polygon points="56.382 238.927 73.64 243.224 74.733 238.831 63.689 236.081 64.892 231.249 75.058 233.78 76.136 229.45 65.97 226.919 67.142 222.212 77.935 224.899 79.013 220.57 62.006 216.336 56.382 238.927" style="fill:#fff"/><path d="M92.24338,221.10278l-10.78555-.56238-1.21508,23.31434,6.49085.33861.47449-9.106,2.71216.14127c2.90627.15152,2.94914,1.18947,3.09391,4.01379a37.02265,37.02265,0,0,0,.50038,5.30408l7.00686.365a37.55632,37.55632,0,0,1-.79828-5.805c-.32972-3.611-.48366-5.62652-4.99754-5.99156l.00674-.1294a8.57128,8.57128,0,0,0,3.614-1.00938c1.13312-.62062,2.22392-1.665,2.35683-4.216a5.97271,5.97271,0,0,0-1.37872-4.60474C98.00955,221.66247,96.44049,221.32116,92.24338,221.10278Zm.29548,9.85868a8.94212,8.94212,0,0,1-2.69032.05392l-2.42153-.12617.2979-5.71549,2.42154.12617c1.87317.0976,4.39175.22916,4.24186,3.10254A2.67914,2.67914,0,0,1,92.53886,230.96146Z" style="fill:#fff"/><rect x="104.71339" y="220.30363" width="6.66111" height="23.34598" transform="translate(-32.24552 17.9544) rotate(-8.27053)" style="fill:#fff"/><polygon points="123.19 236.859 122.005 232.023 132.181 229.529 131.119 225.195 120.943 227.689 119.789 222.978 130.592 220.33 129.53 215.996 112.508 220.168 118.049 242.78 135.322 238.547 134.245 234.15 123.19 236.859" style="fill:#fff"/><path d="M156.58929,221.50715c-2.06486-4.49586-5.81935-3.83875-8.97783-3.27721l-4.43881.79286c-.95983.15589-2.42871.36786-3.14415-1.18937-.58011-1.26351.0618-2.73265,1.76634-3.5155a2.82,2.82,0,0,1,4.1411,1.65679l5.96476-2.73976c-1.06862-2.24876-3.48634-6.58289-11.77252-2.77724-6.34662,2.91487-7.46181,7.30545-5.88274,10.74343,2.03766,4.43709,6.28741,3.69519,7.932,3.40271l5.8217-1.03712c1.58578-.26592,2.3077.22145,2.76629,1.2199,1.10663,2.40964-1.538,3.62418-2.037,3.85337-3.4973,1.60647-4.67582-.80566-5.09666-1.64434l-5.906,2.7126a7.62786,7.62786,0,0,0,3.77522,3.95891c2.93778,1.28407,6.65494.00371,8.85894-1.00856C155.67872,230.21592,158.762,226.23806,156.58929,221.50715Z" style="fill:#fff"/></svg>